<svg xmlns="http://www.w3.org/2000/svg" width="136" height="56" viewBox="0 0 136 56">
  <metadata><?xpacket begin="﻿" id="W5M0MpCehiHzreSzNTczkc9d"?>
<x:xmpmeta xmlns:x="adobe:ns:meta/" x:xmptk="Adobe XMP Core 5.6-c142 79.160924, 2017/07/13-01:06:39        ">
   <rdf:RDF xmlns:rdf="http://www.w3.org/1999/02/22-rdf-syntax-ns#">
      <rdf:Description rdf:about=""/>
   </rdf:RDF>
</x:xmpmeta>
                                                                                                    
                                                                                                    
                                                                                                    
                                                                                                    
                                                                                                    
                                                                                                    
                                                                                                    
                                                                                                    
                                                                                                    
                                                                                                    
                                                                                                    
                                                                                                    
                                                                                                    
                                                                                                    
                                                                                                    
                                                                                                    
                                                                                                    
                                                                                                    
                                                                                                    
                                                                                                    
                           
<?xpacket end="w"?></metadata>
<defs>
    <style>
      .cls-1 {
        fill: #ec2626;
      }

      .cls-1, .cls-2 {
        fill-rule: evenodd;
      }

      .cls-2 {
        fill: #666;
      }
    </style>
  </defs>
  <path id="MTTN_копия" data-name="MTTN копия" class="cls-1" d="M47.648,26.065V0.226H42.684L35.98,14.2,29.241,0.226H24.277V26.065h5.008V11l4.985,9.8h3.42L42.64,11V26.065h5.008ZM70.293,4.726v-4.5H51.785v4.5h6.75V26.065h5.008V4.726h6.75Zm20.722,0v-4.5H72.507v4.5h6.75V26.065h5.008V4.726h6.75Zm23.879,21.339V0.226h-5.008V16.049L99.652,0.226h-4.5V26.065h5.008V10.206l10.234,15.859h4.5Z"/>
  <path id="enterprise_копия" data-name="enterprise копия" class="cls-2" d="M12.965,45.238V44.446a5.545,5.545,0,0,0-1.586-4.176,6.14,6.14,0,0,0-4.456-1.536A6.05,6.05,0,0,0,2.5,40.318,5.968,5.968,0,0,0,.881,44.782a7.068,7.068,0,0,0,.469,2.7,4.994,4.994,0,0,0,1.313,1.884,5.389,5.389,0,0,0,2.022,1.1,9.021,9.021,0,0,0,2.641.36,10.882,10.882,0,0,0,1.686-.12,7.42,7.42,0,0,0,1.387-.348,6.585,6.585,0,0,0,1.179-.564,10.528,10.528,0,0,0,1.119-.792l-1.462-1.032a6.4,6.4,0,0,1-1.716,1.02,6.046,6.046,0,0,1-2.133.324A4.454,4.454,0,0,1,4.163,48.25a4,4,0,0,1-1.1-3.012h9.906Zm-9.906-1.3a6.31,6.31,0,0,1,.119-1.1A4.05,4.05,0,0,1,3.5,41.974a3,3,0,0,1,1.338-1.3,4.437,4.437,0,0,1,2.081-.48,4.437,4.437,0,0,1,2.08.48,3,3,0,0,1,1.338,1.3,4.406,4.406,0,0,1,.193.444,3.027,3.027,0,0,1,.119.42q0.045,0.216.074,0.48t0.06,0.624H3.059Zm25.988,6.744v-7.56a3.96,3.96,0,0,0-1.522-3.288,5.839,5.839,0,0,0-3.76-1.1,7.009,7.009,0,0,0-2.3.36,5.066,5.066,0,0,0-1.82,1.08l0.03-1.3H17.5V50.686h2.178V43.414a2.85,2.85,0,0,1,.976-2.352,4.06,4.06,0,0,1,2.634-.792,4.042,4.042,0,0,1,2.619.78,2.864,2.864,0,0,1,.962,2.364v7.272h2.178Zm10.89,0V49.2H38.8a2.141,2.141,0,0,1-1.522-.457,1.682,1.682,0,0,1-.477-1.275V40.246h3.133v-1.3H36.8v-3.7H34.626v3.7h-1.85v1.3h1.85v7.265a3.142,3.142,0,0,0,.242,1.227,2.873,2.873,0,0,0,.711,1.01,3.382,3.382,0,0,0,1.175.685,4.933,4.933,0,0,0,1.661.252h1.522Zm15.276-5.448V44.446a5.545,5.545,0,0,0-1.586-4.176,6.14,6.14,0,0,0-4.456-1.536,6.05,6.05,0,0,0-4.427,1.584,5.968,5.968,0,0,0-1.615,4.464,7.069,7.069,0,0,0,.469,2.7,4.994,4.994,0,0,0,1.313,1.884,5.39,5.39,0,0,0,2.022,1.1,9.022,9.022,0,0,0,2.641.36,10.882,10.882,0,0,0,1.686-.12,7.421,7.421,0,0,0,1.387-.348,6.585,6.585,0,0,0,1.179-.564,10.528,10.528,0,0,0,1.119-.792l-1.462-1.032a6.4,6.4,0,0,1-1.716,1.02,6.046,6.046,0,0,1-2.133.324,4.454,4.454,0,0,1-3.222-1.068,4,4,0,0,1-1.1-3.012h9.906Zm-9.906-1.3a6.31,6.31,0,0,1,.119-1.1,4.051,4.051,0,0,1,.327-0.864,3,3,0,0,1,1.337-1.3,4.749,4.749,0,0,1,4.161,0,3,3,0,0,1,1.338,1.3,4.406,4.406,0,0,1,.193.444,3.027,3.027,0,0,1,.119.42q0.045,0.216.074,0.48t0.06,0.624H45.308Zm24.257-4.1a4.58,4.58,0,0,0-1.626-.864,6.981,6.981,0,0,0-1.895-.24,6.785,6.785,0,0,0-2.4.42,3.888,3.888,0,0,0-1.716,1.164v-1.44H59.749V50.686h2.178V43.438a3.06,3.06,0,0,1,.254-1.248,3.147,3.147,0,0,1,.7-1.008,3.1,3.1,0,0,1,1.1-.672,4.866,4.866,0,0,1,2.864-.048,4.014,4.014,0,0,1,1.134.672ZM83.931,43.39a7.757,7.757,0,0,0-.268-1.356,5.383,5.383,0,0,0-.537-1.236,3.868,3.868,0,0,0-.91-1.032,4.427,4.427,0,0,0-1.522-.756,7.2,7.2,0,0,0-2.059-.276,7.871,7.871,0,0,0-2.238.3,4.385,4.385,0,0,0-1.91,1.236V38.878H72.31V55.966h2.178V49.294a4.57,4.57,0,0,0,1.91,1.224,7.591,7.591,0,0,0,2.238.312,7.194,7.194,0,0,0,2.059-.276,4.413,4.413,0,0,0,1.522-.756,3.862,3.862,0,0,0,.91-1.032,5.376,5.376,0,0,0,.537-1.236,7.742,7.742,0,0,0,.268-1.356A13.024,13.024,0,0,0,83.931,43.39Zm-2.222,3.072A3.724,3.724,0,0,1,81.2,47.9a2.815,2.815,0,0,1-1.114,1.008,4.976,4.976,0,0,1-3.834,0A2.815,2.815,0,0,1,75.142,47.9a3.905,3.905,0,0,1-.52-1.44,10.614,10.614,0,0,1,0-3.36,3.91,3.91,0,0,1,.52-1.44,2.821,2.821,0,0,1,1.114-1.008,4.976,4.976,0,0,1,3.834,0A2.821,2.821,0,0,1,81.2,41.662a3.729,3.729,0,0,1,.505,1.44A11.928,11.928,0,0,1,81.709,46.462Zm16.678-6.624a4.58,4.58,0,0,0-1.626-.864,6.981,6.981,0,0,0-1.895-.24,6.785,6.785,0,0,0-2.4.42,3.888,3.888,0,0,0-1.716,1.164v-1.44H88.571V50.686h2.178V43.438A3.061,3.061,0,0,1,91,42.19a3.146,3.146,0,0,1,.7-1.008,3.1,3.1,0,0,1,1.1-.672,4.866,4.866,0,0,1,2.864-.048,4.017,4.017,0,0,1,1.134.672Zm4.923,10.848V38.878h-2.178V50.686h2.178ZM103.25,33.61a1.652,1.652,0,0,0-1.044-.348,1.591,1.591,0,0,0-1.029.348,1.008,1.008,0,0,0,0,1.656,1.589,1.589,0,0,0,1.029.348,1.65,1.65,0,0,0,1.044-.348A0.989,0.989,0,0,0,103.25,33.61Zm15.709,12.228a2.718,2.718,0,0,0-.88-0.96,4.147,4.147,0,0,0-1.372-.576,11.283,11.283,0,0,0-1.761-.264l-2.357-.168a3.886,3.886,0,0,1-1.984-.528,1.41,1.41,0,0,1-.582-1.2,1.6,1.6,0,0,1,.835-1.428,4.71,4.71,0,0,1,2.447-.516,9.575,9.575,0,0,1,2.133.228,5.813,5.813,0,0,1,1.776.708l1.4-1.128a7.124,7.124,0,0,0-2.342-.96,13.128,13.128,0,0,0-2.939-.312,9.263,9.263,0,0,0-2.163.24,5.822,5.822,0,0,0-1.716.684,3.456,3.456,0,0,0-1.119,1.08,2.661,2.661,0,0,0-.4,1.452,2.568,2.568,0,0,0,1.119,2.244,6.481,6.481,0,0,0,3.267.924l2.417,0.168a3.64,3.64,0,0,1,1.865.528,1.41,1.41,0,0,1,.582,1.2,1.668,1.668,0,0,1-1.044,1.572,6.56,6.56,0,0,1-2.865.516,9.768,9.768,0,0,1-2.536-.312,5.08,5.08,0,0,1-2.029-1.056l-1.432,1.152a7.522,7.522,0,0,0,2.685,1.32,13.21,13.21,0,0,0,3.342.384,11.35,11.35,0,0,0,2.432-.24,6.361,6.361,0,0,0,1.88-.708,3.661,3.661,0,0,0,1.223-1.128,2.719,2.719,0,0,0,.432-1.524A2.875,2.875,0,0,0,118.959,45.838Zm15.8-.6V44.446a5.544,5.544,0,0,0-1.585-4.176,6.141,6.141,0,0,0-4.457-1.536,6.051,6.051,0,0,0-4.427,1.584,5.971,5.971,0,0,0-1.614,4.464,7.065,7.065,0,0,0,.469,2.7,5,5,0,0,0,1.312,1.884,5.4,5.4,0,0,0,2.023,1.1,9.014,9.014,0,0,0,2.64.36,10.876,10.876,0,0,0,1.686-.12,7.406,7.406,0,0,0,1.387-.348,6.569,6.569,0,0,0,1.179-.564,10.5,10.5,0,0,0,1.119-.792l-1.462-1.032a6.4,6.4,0,0,1-1.716,1.02,6.044,6.044,0,0,1-2.133.324,4.451,4.451,0,0,1-3.222-1.068,3.992,3.992,0,0,1-1.1-3.012h9.905Zm-9.905-1.3a6.336,6.336,0,0,1,.118-1.1,4.124,4.124,0,0,1,.327-0.864,3,3,0,0,1,1.338-1.3,4.749,4.749,0,0,1,4.161,0,3,3,0,0,1,1.338,1.3,4.622,4.622,0,0,1,.193.444,3.112,3.112,0,0,1,.119.42c0.029,0.144.054,0.3,0.074,0.48s0.039,0.384.059,0.624h-7.727Z"/>
</svg>
